<?xml version="1.0" encoding="UTF-8" standalone="no"?>
<svg width="426px" height="130px" viewBox="0 0 426 130" version="1.1" xmlns="http://www.w3.org/2000/svg" xmlns:xlink="http://www.w3.org/1999/xlink" xmlns:sketch="http://www.bohemiancoding.com/sketch/ns">
    <!-- Generator: Sketch 3.3 (11970) - http://www.bohemiancoding.com/sketch -->
    <title>Monkey + TROOP</title>
    <desc>Created with Sketch.</desc>
    <defs></defs>
    <g id="Page-1" stroke="none" stroke-width="1" fill="none" fill-rule="evenodd" sketch:type="MSPage">
        <g id="Monkey-+-TROOP" sketch:type="MSLayerGroup">
            <g id="Monkey" sketch:type="MSShapeGroup">
                <circle id="Oval-3" fill="#312A18" cx="77" cy="65" r="65"></circle>
                <circle id="Oval-1" fill="#FEF7C7" cx="56.5" cy="53.5" r="22.5"></circle>
                <path d="M97.5,76 C109.926407,76 120,65.9264069 120,53.5 C120,41.0735931 109.926407,31 97.5,31 C85.0735931,31 75,41.0735931 75,53.5 C75,65.9264069 85.0735931,76 97.5,76 Z" id="Oval-1-Copy" fill="#FEF7C7"></path>
                <g id="Ear-1-+-Inside-ear-1" transform="translate(0.000000, 26.000000)">
                    <path d="M17.5,35 C27.1649831,35 35,27.1649831 35,17.5 C35,7.83501688 27.1649831,0 17.5,0 C7.83501688,0 0,7.83501688 0,17.5 C0,27.1649831 7.83501688,35 17.5,35 Z" id="Ear-1" fill="#312A18"></path>
                    <path d="M17.5,27.5 C23.0228475,27.5 27.5,23.0228475 27.5,17.5 C27.5,11.9771525 23.0228475,7.5 17.5,7.5 C11.9771525,7.5 7.5,11.9771525 7.5,17.5 C7.5,23.0228475 11.9771525,27.5 17.5,27.5 Z" id="Inside-ear-1" fill="#FEF7C7"></path>
                </g>
                <g id="Ear-1-+-Inside-ear-1-Copy" transform="translate(119.000000, 26.000000)">
                    <path d="M17.5,35 C27.1649831,35 35,27.1649831 35,17.5 C35,7.83501688 27.1649831,0 17.5,0 C7.83501688,0 0,7.83501688 0,17.5 C0,27.1649831 7.83501688,35 17.5,35 Z" id="Ear-1" fill="#312A18"></path>
                    <path d="M17.5,27.5 C23.0228475,27.5 27.5,23.0228475 27.5,17.5 C27.5,11.9771525 23.0228475,7.5 17.5,7.5 C11.9771525,7.5 7.5,11.9771525 7.5,17.5 C7.5,23.0228475 11.9771525,27.5 17.5,27.5 Z" id="Inside-ear-1" fill="#FEF7C7"></path>
                </g>
                <g id="Oval-1-Copy-2-+-Nose-1-+-Nose-1-Copy" transform="translate(50.000000, 59.000000)">
                    <path d="M27,54 C41.9116882,54 54,41.9116882 54,27 C54,12.0883118 41.9116882,0 27,0 C12.0883118,0 0,12.0883118 0,27 C0,41.9116882 12.0883118,54 27,54 Z" id="Oval-1-Copy-2" fill="#FEF7C7"></path>
                    <circle id="Nose-1" fill="#312A18" cx="19.8" cy="33" r="5.4"></circle>
                    <circle id="Nose-1-Copy" fill="#312A18" cx="34.2" cy="33" r="5.4"></circle>
                </g>
                <g id="Group" transform="translate(43.000000, 41.000000)">
                    <circle id="Eye-1" fill="#312A18" cx="12.5" cy="12.5" r="12.5"></circle>
                    <circle id="Eye-2" fill="#312A18" cx="56.5" cy="12.5" r="12.5"></circle>
                    <circle id="Eye-2-Copy" fill="#312A18" cx="56.5" cy="12.5" r="12.5"></circle>
                    <path d="M58.9976686,20.6271178 C62.4732057,19.5602772 65,16.3252208 65,12.5 C65,8.67477918 62.4732057,5.43972277 58.9976686,4.37288223 C60.8693958,6.55820046 62,9.39706684 62,12.5 C62,15.6029332 60.8693958,18.4417995 58.9976686,20.6271178 Z" id="Oval-9" fill="#F8F6F6"></path>
                    <path d="M14.9976686,20.6271178 C18.4732057,19.5602772 21,16.3252208 21,12.5 C21,8.67477918 18.4732057,5.43972277 14.9976686,4.37288223 C16.8693958,6.55820046 18,9.39706684 18,12.5 C18,15.6029332 16.8693958,18.4417995 14.9976686,20.6271178 Z" id="Oval-9-Copy" fill="#F8F6F6"></path>
                </g>
            </g>
            <text id="TROOP" sketch:type="MSTextLayer" font-family="Montserrat" font-size="72" font-weight="bold" fill="#312A18">
                <tspan x="167" y="94">TROOP</tspan>
            </text>
        </g>
    </g>
</svg>